<svg width="35" height="35" viewBox="0 0 35 35" fill="none" xmlns="http://www.w3.org/2000/svg">
<path opacity="0.2" d="M17.5 35C27.165 35 35 27.165 35 17.5C35 7.83502 27.165 0 17.5 0C7.83502 0 0 7.83502 0 17.5C0 27.165 7.83502 35 17.5 35Z" fill="#327AF9"/>
<path d="M10.5245 25.9649L10.5063 25.5225C10.5063 25.4588 10.5 25.3986 10.5 25.3307C10.4996 23.9612 10.8827 22.6188 11.6061 21.4558C12.3295 20.2929 13.3642 19.3558 14.5929 18.7507L14.6482 18.7234C14.8582 18.624 15.0787 18.5323 15.2999 18.4525L15.3734 18.4266C15.4777 18.3909 15.5883 18.3566 15.6989 18.3216C15.8389 18.2796 15.988 18.2418 16.135 18.2082C16.2085 18.1914 16.2827 18.1767 16.3625 18.162L16.5725 18.1242L16.6033 18.12C16.702 18.1032 16.8063 18.0885 16.9106 18.0773L17.0212 18.0668H17.0702L17.1626 18.0591C17.5003 18.0357 17.8392 18.0357 18.1769 18.0591L18.4471 18.0815C18.5269 18.0906 18.6067 18.1025 18.6809 18.1137H18.7117H18.718L18.7425 18.1186C18.8349 18.1319 18.9266 18.1487 19.0225 18.1669L19.0596 18.1746C19.1149 18.1837 19.1702 18.1949 19.2192 18.2061C19.3725 18.2404 19.5265 18.2803 19.6742 18.3237C19.7722 18.3531 19.8709 18.3832 19.9633 18.4147C20.0865 18.456 20.209 18.5008 20.3259 18.5491C20.4302 18.5925 20.5408 18.638 20.6458 18.6891L20.6885 18.7094C21.9423 19.3045 23.0017 20.2429 23.7436 21.4157C24.4855 22.5886 24.8796 23.9478 24.8801 25.3356C24.8801 25.4056 24.8738 25.4665 24.8675 25.5316L24.8493 25.9677L10.5245 25.9649ZM17.6596 17.4949C17.2175 17.4923 16.7783 17.4229 16.3569 17.2891C16.3135 17.2751 16.2708 17.2576 16.2218 17.2408L16.1112 17.1981C16.057 17.1804 16.0037 17.1598 15.9516 17.1365C15.1357 16.7834 14.4415 16.1983 13.9553 15.454C13.4691 14.7097 13.2122 13.8389 13.2167 12.9498C13.2167 12.8728 13.223 12.7972 13.2286 12.723V12.6663C13.312 11.513 13.8384 10.4365 14.6973 9.66225C15.5562 8.88796 16.6812 8.47579 17.837 8.51196C18.9928 8.54813 20.0899 9.02983 20.8987 9.85631C21.7076 10.6828 22.1655 11.79 22.1767 12.9463V12.9834C22.1702 13.644 22.0234 14.2956 21.7462 14.8951C21.4652 15.4948 21.0561 16.0255 20.5478 16.4498L20.3693 16.5898C20.314 16.6325 20.265 16.6745 20.2097 16.7123C20.0991 16.7865 19.9948 16.8523 19.8898 16.9097L19.8282 16.9468C19.7358 16.9986 19.6441 17.0427 19.5482 17.0868L19.5174 17.1029C19.4917 17.1172 19.465 17.1296 19.4376 17.14C19.3676 17.1694 19.3025 17.1967 19.2346 17.2191L19.1366 17.2541C19.0997 17.2677 19.0629 17.2805 19.026 17.2926C18.9707 17.3115 18.9091 17.3255 18.8475 17.3402L18.7306 17.3717C18.6872 17.3843 18.6445 17.3955 18.6018 17.4046C18.5318 17.4179 18.473 17.427 18.4114 17.4347L18.3008 17.4508C18.2518 17.4592 18.2028 17.4676 18.1531 17.4732C18.0019 17.4886 17.85 17.4963 17.6981 17.4963L17.6596 17.4949Z" fill="#327AF9"/>
</svg>
