<svg width="24" height="24" viewBox="0 0 24 24" fill="none" xmlns="http://www.w3.org/2000/svg">
<path fill-rule="evenodd" clip-rule="evenodd" d="M21.5999 12.0004C21.5999 14.5465 20.5885 16.9883 18.7881 18.7886C16.9878 20.589 14.546 21.6004 11.9999 21.6004C9.45382 21.6004 7.01203 20.589 5.21168 18.7886C3.41133 16.9883 2.3999 14.5465 2.3999 12.0004C2.3999 9.45431 3.41133 7.01251 5.21168 5.21217C7.01203 3.41182 9.45382 2.40039 11.9999 2.40039C14.546 2.40039 16.9878 3.41182 18.7881 5.21217C20.5885 7.01251 21.5999 9.45431 21.5999 12.0004ZM13.1999 16.8004C13.1999 17.1186 13.0735 17.4239 12.8484 17.6489C12.6234 17.874 12.3182 18.0004 11.9999 18.0004C11.6816 18.0004 11.3764 17.874 11.1514 17.6489C10.9263 17.4239 10.7999 17.1186 10.7999 16.8004C10.7999 16.4821 10.9263 16.1769 11.1514 15.9519C11.3764 15.7268 11.6816 15.6004 11.9999 15.6004C12.3182 15.6004 12.6234 15.7268 12.8484 15.9519C13.0735 16.1769 13.1999 16.4821 13.1999 16.8004ZM11.9999 6.00039C11.6816 6.00039 11.3764 6.12682 11.1514 6.35186C10.9263 6.57691 10.7999 6.88213 10.7999 7.20039V12.0004C10.7999 12.3187 10.9263 12.6239 11.1514 12.8489C11.3764 13.074 11.6816 13.2004 11.9999 13.2004C12.3182 13.2004 12.6234 13.074 12.8484 12.8489C13.0735 12.6239 13.1999 12.3187 13.1999 12.0004V7.20039C13.1999 6.88213 13.0735 6.57691 12.8484 6.35186C12.6234 6.12682 12.3182 6.00039 11.9999 6.00039Z" fill="#ED6471"/>
</svg>
